<svg width="112" height="56" viewBox="0 0 112 56" xmlns="http://www.w3.org/2000/svg">
    <g fill="none" fillRule="evenodd">
        <path d="M0 0h112v56H0z"/>
        <path d="M4.667 12.482H24.4v3.424c0 .79-.3 1.58-.899 2.183a3.049 3.049 0 0 1-2.17.904H11.218v6.524H22.55v3.164c0 .859-.326 1.719-.978 2.375a3.318 3.318 0 0 1-2.36.983h-7.994v10.878H4.68l-.012-30.435zm73.352 2.472a.192.192 0 0 0-.14-.05.214.214 0 0 0-.127.037c-.076.05-.101.164-.063.25.469.955.71 1.958.71 2.999 0 3.5-2.738 6.587-6.4 7.175-.28.063-.559.101-.838.101H64.75v-6.523h8.021c1.243 0 2.37.677 2.928 1.781.026.063.09.113.165.113l.013.013a.218.218 0 0 0 .165-.088c.582-.778.862-1.806.862-3.236 0-1.393-.583-2.66-1.649-3.55-1.178-1.005-2.94-1.532-5.068-1.532H58.209V43.12h6.54V32.014h6.667c5.449 0 9.885-4.39 9.885-9.784 0-2.76-1.204-5.42-3.282-7.276m-28.168-.939c2.03-2.094 4.88-1.476 4.88-1.476v17.293c0 7.488-6.161 13.586-13.727 13.586-4.284 0-8.24-1.92-10.85-5.27-.063-.075-.05-.187.013-.263a.232.232 0 0 1 .152-.062c.038 0 .076.012.114.037a12.18 12.18 0 0 0 6.147 1.844h.367c3.246-.013 6.326-1.241 8.467-3.399 1.826-1.845 2.814-4.228 2.763-6.687V19.181c.006-1.712.104-3.546 1.674-5.166zm-21.832-1.46s2.65-.631 4.77 1.37c1.46 1.38 1.77 3.222 1.77 4.831V32.12c0 2.496 1.381 4.83 3.612 6.071.076.05.127.139.101.227a.23.23 0 0 1-.19.162c-.291.026-.57.038-.849.038-5.17 0-9.227-3.5-9.227-7.953zM85.98 33.974a13.291 13.291 0 0 0 9.595 4.031c3.528 0 5.247-1.658 5.247-3.36 0-2.24-2.624-3-6.107-3.807-4.927-1.12-11.265-2.464-11.265-9.133 0-4.972 4.343-9.002 11.445-9.002 4.798 0 8.777 1.435 11.763 4.166l-3.577 4.652c-2.438-2.24-5.701-3.275-8.642-3.275-2.895 0-4.433 1.256-4.433 3.047 0 2.016 2.533 2.642 6.017 3.448 4.977 1.121 11.31 2.6 11.31 9.229 0 5.464-3.936 9.586-12.08 9.586-5.79 0-9.953-1.928-12.803-4.748l3.53-4.834z" fill="#155ED4"/>
    </g>
</svg>
